<?xml version="1.0" encoding="UTF-8"?>
<svg width="201px" height="201px" viewBox="0 0 201 201" version="1.1" xmlns="http://www.w3.org/2000/svg" xmlns:xlink="http://www.w3.org/1999/xlink">
    <!-- Generator: Sketch 46.2 (44496) - http://www.bohemiancoding.com/sketch -->
    <title>MNX</title>
    <desc>Created with Sketch.</desc>
    <defs></defs>
    <g id="Page-1" stroke="none" stroke-width="1" fill="none" fill-rule="evenodd">
        <g id="Artboard" transform="translate(-414.000000, -6533.000000)">
            <g id="MNX" transform="translate(414.000000, 6533.000000)">
                <path d="M19.6673,100.7332 C19.6673,142.2032 50.7173,176.4222 90.8473,181.4032 L90.8473,200.2232 C40.3673,195.1632 0.9573,152.5522 0.9573,100.7332 C0.9573,48.9132 40.3673,6.3022 90.8473,1.2432 L90.8473,20.0632 C50.7173,25.0432 19.6673,59.2622 19.6673,100.7332" id="Fill-424" fill="#00AEEF"></path>
                <path d="M200.2771,89.0633 L181.3971,89.0633 C176.1171,52.2623 146.1671,23.4223 108.8471,19.8233 L108.8471,1.0423 C156.5171,4.7623 194.8071,41.9133 200.2771,89.0633" id="Fill-425" fill="#00AEEF"></path>
                <path d="M200.7571,107.0633 C197.6571,156.7233 158.2971,196.5633 108.8471,200.4223 L108.8471,181.6433 C147.9571,177.8733 178.9671,146.3823 181.9871,107.0633 L200.7571,107.0633 Z" id="Fill-426" fill="#00AEEF"></path>
                <path d="M200.9573,100.7332 C200.9573,102.8632 200.8873,104.9732 200.7573,107.0632 L181.9873,107.0632 C178.9673,146.3822 147.9573,177.8732 108.8473,181.6432 L108.8473,200.4222 C106.2473,200.6322 103.6173,200.7332 100.9573,200.7332 C97.5473,200.7332 94.1773,200.5632 90.8473,200.2232 L90.8473,181.4032 C50.7173,176.4222 19.6673,142.2032 19.6673,100.7332 C19.6673,59.2622 50.7173,25.0432 90.8473,20.0632 L90.8473,1.2432 C94.1773,0.9032 97.5473,0.7332 100.9573,0.7332 C103.6173,0.7332 106.2473,0.8332 108.8473,1.0432 L108.8473,19.8232 C146.1673,23.4222 176.1173,52.2622 181.3973,89.0632 L200.2773,89.0632 C200.7273,92.8932 200.9573,96.7832 200.9573,100.7332" id="Fill-427" fill="#FFFFFF"></path>
            </g>
        </g>
    </g>
</svg>