<svg width="618" height="314" viewBox="0 0 618 314" fill="none" xmlns="http://www.w3.org/2000/svg">
<path d="M296.87 166.297L274.697 145.356L308.573 157.674L342.448 145.356L319.659 166.297L308.573 195.861L296.87 166.297Z" fill="#3B82F6"/>
<path d="M362.773 138.581C355.382 150.899 325.818 198.529 310.42 221.113L253.14 138.581L0 1.23183C7.88369 27.8393 40.2397 49.6837 55.4322 57.28C116.202 90.9499 236.757 158.29 232.815 158.29C228.873 158.29 87.4597 82.3271 17.2456 44.3458C46.3167 104.952 195.245 158.29 253.14 202.02L36.3389 86.2279C41.8821 138.581 232.815 202.02 260.531 233.431L232.815 275.929L307.341 313.5H313.5L382.482 275.929L356.614 233.431C482.26 158.29 558.018 138.581 580.807 86.2279L362.773 202.02C507.513 117.639 585.118 85.612 598.052 44.3458L386.178 158.29C517.983 79.4529 582.654 56.664 617.761 0L362.773 138.581Z" fill="#3B82F6"/>
</svg>
